<?xml version="1.0" encoding="UTF-8" standalone="no"?>
<!-- Created with Inkscape (http://www.inkscape.org/) -->

<svg
   width="48.517075mm"
   height="40.174255mm"
   viewBox="0 0 48.517075 40.174255"
   version="1.1"
   id="svg1"
   xmlns="http://www.w3.org/2000/svg"
   xmlns:svg="http://www.w3.org/2000/svg">
  <defs
     id="defs1" />
  <g
     id="layer1"
     transform="translate(-42.325158,-40.883483)">
    <g
       id="g22">
      <path
         d="m 50.485452,47.964773 q 0,0.669726 -0.272851,1.196826 -0.266651,0.5271 -0.73794,0.874365 -0.545703,0.409278 -1.203027,0.58291 -0.651123,0.173633 -1.655713,0.173633 h -4.030762 v -9.233545 h 3.584278 q 1.11621,0 1.630908,0.07441 0.520898,0.07442 1.029394,0.328663 0.5271,0.26665 0.781348,0.719335 0.260449,0.446485 0.260449,1.023194 0,0.669726 -0.353467,1.184424 -0.353466,0.508496 -0.998388,0.79375 v 0.04961 q 0.905371,0.179834 1.43247,0.744141 0.533301,0.564306 0.533301,1.488281 z m -3.050976,-3.795117 q 0,-0.229444 -0.117823,-0.458887 -0.111621,-0.229443 -0.403076,-0.341064 -0.260449,-0.09922 -0.651123,-0.10542 -0.384472,-0.0124 -1.085205,-0.0124 h -0.223242 v 1.953369 h 0.37207 q 0.564307,0 0.961182,-0.0186 0.396875,-0.0186 0.626318,-0.124024 0.322461,-0.142627 0.42168,-0.365869 0.09922,-0.229443 0.09922,-0.527099 z m 0.58291,3.75791 q 0,-0.440283 -0.173633,-0.675928 -0.167432,-0.241846 -0.576709,-0.359668 -0.279053,-0.08062 -0.768945,-0.08682 -0.489893,-0.0062 -1.023194,-0.0062 h -0.520898 v 2.300634 h 0.173633 q 1.00459,0 1.438672,-0.0062 0.434082,-0.0062 0.799951,-0.16123 0.37207,-0.15503 0.508496,-0.409278 0.142627,-0.260449 0.142627,-0.595312 z"
         id="text12"
         style="font-weight:bold;font-size:12.7px;line-height:0;font-family:Sans;-inkscape-font-specification:'Sans, Bold';opacity:0.762992;stroke:#ffffff;stroke-width:0.52;stroke-linecap:round;stroke-linejoin:bevel;paint-order:markers stroke fill"
         aria-label="B" />
      <path
         d="m 54.367386,50.792507 h -2.232422 v -9.649023 h 2.232422 z"
         id="text11"
         style="font-weight:bold;font-size:12.7px;line-height:0;font-family:Sans;-inkscape-font-specification:'Sans, Bold';opacity:0.762992;stroke:#ffffff;stroke-width:0.52;stroke-linecap:round;stroke-linejoin:bevel;paint-order:markers stroke fill"
         aria-label="l" />
      <path
         d="M 60.692581,48.975564 V 47.52449 q -0.452685,0.03721 -0.979785,0.10542 -0.5271,0.06201 -0.799951,0.148828 -0.334863,0.10542 -0.514697,0.310058 -0.173633,0.198438 -0.173633,0.5271 0,0.217041 0.03721,0.353467 0.03721,0.136425 0.186035,0.260449 0.142627,0.124023 0.341064,0.186035 0.198438,0.05581 0.620118,0.05581 0.334863,0 0.675927,-0.136426 0.347266,-0.136426 0.607715,-0.359668 z m 0,1.079004 q -0.179834,0.136426 -0.446484,0.328662 -0.266651,0.192236 -0.502295,0.303857 -0.328662,0.148828 -0.682129,0.217041 -0.353467,0.07441 -0.775147,0.07441 -0.992187,0 -1.661914,-0.613916 -0.669726,-0.613916 -0.669726,-1.568896 0,-0.762744 0.341064,-1.246436 0.341065,-0.483691 0.967383,-0.762744 0.620117,-0.279053 1.537891,-0.396875 0.917773,-0.117822 1.903759,-0.173633 v -0.03721 q 0,-0.576709 -0.471289,-0.79375 -0.471289,-0.223242 -1.389062,-0.223242 -0.551904,0 -1.178223,0.198438 -0.626318,0.192236 -0.89917,0.297656 h -0.204638 v -1.680518 q 0.353466,-0.09302 1.147216,-0.217041 0.799952,-0.130224 1.599903,-0.130224 1.90376,0 2.747119,0.589111 0.84956,0.58291 0.84956,1.835547 V 50.7925 h -2.213818 z"
         id="text10"
         style="font-weight:bold;font-size:12.7px;line-height:0;font-family:Sans;-inkscape-font-specification:'Sans, Bold';opacity:0.762992;stroke:#ffffff;stroke-width:0.52;stroke-linecap:round;stroke-linejoin:bevel;paint-order:markers stroke fill"
         aria-label="a" />
      <path
         d="m 68.586674,50.978542 q -0.911573,0 -1.668116,-0.217041 -0.750341,-0.217041 -1.308447,-0.669726 -0.551904,-0.452686 -0.855761,-1.141016 -0.303858,-0.68833 -0.303858,-1.612305 0,-0.973583 0.322461,-1.680517 0.328662,-0.706934 0.911572,-1.172022 0.564307,-0.440283 1.302246,-0.644921 0.73794,-0.204639 1.53169,-0.204639 0.713135,0 1.314648,0.155029 0.601514,0.15503 1.122412,0.403076 v 1.90376 h -0.316259 q -0.130225,-0.111621 -0.31626,-0.260449 -0.179834,-0.148828 -0.446485,-0.291455 -0.254248,-0.136426 -0.558105,-0.223242 -0.303857,-0.09302 -0.706934,-0.09302 -0.892968,0 -1.37666,0.570508 -0.47749,0.564307 -0.47749,1.53789 0,1.00459 0.489893,1.525489 0.496093,0.520898 1.401464,0.520898 0.42168,0 0.756543,-0.09302 0.341065,-0.09922 0.564307,-0.229444 0.21084,-0.124023 0.37207,-0.260449 0.161231,-0.136426 0.297657,-0.26665 h 0.316259 v 1.903759 q -0.527099,0.248047 -1.103808,0.390674 -0.570508,0.148828 -1.265039,0.148828 z"
         id="text9"
         style="font-weight:bold;font-size:12.7px;line-height:0;font-family:Sans;-inkscape-font-specification:'Sans, Bold';opacity:0.762992;stroke:#ffffff;stroke-width:0.52;stroke-linecap:round;stroke-linejoin:bevel;paint-order:markers stroke fill"
         aria-label="c" />
      <path
         d="m 79.823193,50.792507 h -2.598291 l -1.953369,-3.032373 -0.607715,0.73794 v 2.294433 h -2.232422 v -9.649023 h 2.232422 v 5.760888 l 2.406055,-3.075781 h 2.573486 l -2.505273,3.001367 z"
         id="text8"
         style="font-weight:bold;font-size:12.7px;line-height:0;font-family:Sans;-inkscape-font-specification:'Sans, Bold';opacity:0.762992;stroke:#ffffff;stroke-width:0.52;stroke-linecap:round;stroke-linejoin:bevel;paint-order:markers stroke fill"
         aria-label="k" />
      <path
         d="m 50.206399,58.403327 q 0,0.620117 -0.217041,1.215429 -0.217041,0.589111 -0.620117,0.992188 -0.551904,0.545703 -1.234033,0.824756 -0.675928,0.279052 -1.686719,0.279052 h -1.48208 v 3.007569 h -2.38125 V 55.488776 H 46.5043 q 0.880566,0 1.48208,0.155029 0.607715,0.148828 1.072803,0.452686 0.558105,0.365869 0.84956,0.936377 0.297656,0.570507 0.297656,1.370459 z m -2.461865,0.05581 q 0,-0.390674 -0.21084,-0.669726 -0.210839,-0.285254 -0.489892,-0.396875 -0.372071,-0.148829 -0.725537,-0.161231 -0.353467,-0.0186 -0.942578,-0.0186 h -0.409278 v 2.765722 h 0.682129 q 0.607715,0 0.998389,-0.07441 0.396875,-0.07441 0.663525,-0.297656 0.229444,-0.198438 0.328662,-0.471289 0.10542,-0.279053 0.10542,-0.675928 z"
         id="text18"
         style="font-weight:bold;font-size:12.7px;line-height:0;font-family:Sans;-inkscape-font-specification:'Sans, Bold';opacity:0.762992;stroke:#ffffff;stroke-width:0.52;stroke-linecap:round;stroke-linejoin:bevel;paint-order:markers stroke fill"
         aria-label="P" />
      <path
         d="m 54.913087,62.260455 1.5875,-4.50205 h 2.294433 l -3.869531,9.518798 h -2.418457 l 1.103809,-2.604492 -2.709913,-6.914306 h 2.344043 z"
         id="text17"
         style="font-weight:bold;font-size:12.7px;line-height:0;font-family:Sans;-inkscape-font-specification:'Sans, Bold';opacity:0.762992;stroke:#ffffff;stroke-width:0.52;stroke-linecap:round;stroke-linejoin:bevel;paint-order:markers stroke fill"
         aria-label="y" />
      <path
         d="m 64.487697,64.660309 q -0.359668,0.09302 -0.762744,0.142627 -0.403077,0.05581 -0.985987,0.05581 -1.302246,0 -1.940966,-0.527099 -0.63252,-0.5271 -0.63252,-1.804541 v -3.255615 h -0.917773 v -1.513086 h 0.917773 v -1.990576 h 2.232422 v 1.990576 h 2.089795 v 1.513086 h -2.089795 v 2.468066 q 0,0.365869 0.0062,0.638721 0.0062,0.272851 0.09922,0.489892 0.08682,0.217041 0.303857,0.347266 0.223242,0.124023 0.644922,0.124023 0.173633,0 0.452686,-0.07441 0.285254,-0.07441 0.396875,-0.136426 h 0.186035 z"
         id="text16"
         style="font-weight:bold;font-size:12.7px;line-height:0;font-family:Sans;-inkscape-font-specification:'Sans, Bold';opacity:0.762992;stroke:#ffffff;stroke-width:0.52;stroke-linecap:round;stroke-linejoin:bevel;paint-order:markers stroke fill"
         aria-label="t" />
      <path
         d="m 72.815867,64.722321 h -2.244824 v -3.454053 q 0,-0.42168 -0.04341,-0.837158 -0.04341,-0.42168 -0.148828,-0.620117 -0.124023,-0.229444 -0.365869,-0.334864 -0.235645,-0.10542 -0.663526,-0.10542 -0.303857,0 -0.620117,0.09922 -0.310058,0.09922 -0.675927,0.31626 v 4.936133 h -2.232422 v -9.649024 h 2.232422 v 3.454053 q 0.595312,-0.465088 1.141015,-0.713135 0.551904,-0.248047 1.221631,-0.248047 1.128613,0 1.761133,0.657325 0.63872,0.657324 0.63872,1.965771 z"
         id="text15"
         style="font-weight:bold;font-size:12.7px;line-height:0;font-family:Sans;-inkscape-font-specification:'Sans, Bold';opacity:0.762992;stroke:#ffffff;stroke-width:0.52;stroke-linecap:round;stroke-linejoin:bevel;paint-order:markers stroke fill"
         aria-label="h" />
      <path
         d="m 81.987407,61.243463 q 0,1.717725 -1.00459,2.709912 -0.998389,0.985987 -2.809131,0.985987 -1.810742,0 -2.815332,-0.985987 -0.998388,-0.992187 -0.998388,-2.709912 0,-1.730127 1.004589,-2.716113 1.010791,-0.985986 2.809131,-0.985986 1.823145,0 2.815332,0.992187 0.998389,0.992188 0.998389,2.709912 z m -2.747119,1.69292 q 0.217041,-0.26665 0.322461,-0.638721 0.111621,-0.378271 0.111621,-1.041796 0,-0.613916 -0.111621,-1.029395 -0.111621,-0.415478 -0.310059,-0.663525 -0.198437,-0.254248 -0.47749,-0.359668 -0.279053,-0.10542 -0.601514,-0.10542 -0.322461,0 -0.576709,0.08682 -0.248047,0.08682 -0.47749,0.347266 -0.204639,0.241845 -0.328662,0.663525 -0.117822,0.42168 -0.117822,1.060401 0,0.570507 0.10542,0.992187 0.105419,0.415479 0.310058,0.669727 0.198438,0.241845 0.471289,0.353466 0.279053,0.111621 0.63252,0.111621 0.303857,0 0.576709,-0.09922 0.279052,-0.10542 0.471289,-0.347266 z"
         id="text14"
         style="font-weight:bold;font-size:12.7px;line-height:0;font-family:Sans;-inkscape-font-specification:'Sans, Bold';opacity:0.762992;stroke:#ffffff;stroke-width:0.52;stroke-linecap:round;stroke-linejoin:bevel;paint-order:markers stroke fill"
         aria-label="o" />
      <path
         d="m 90.582233,64.722321 h -2.244825 v -3.454053 q 0,-0.42168 -0.04341,-0.837158 -0.04341,-0.42168 -0.148828,-0.620117 -0.124023,-0.229444 -0.365869,-0.334864 -0.235645,-0.10542 -0.663525,-0.10542 -0.303858,0 -0.620118,0.09922 -0.310058,0.09922 -0.675927,0.31626 v 4.936133 h -2.232422 v -6.963916 h 2.232422 v 0.768945 q 0.595312,-0.465088 1.141015,-0.713135 0.551905,-0.248047 1.221631,-0.248047 1.128613,0 1.761133,0.657325 0.638721,0.657324 0.638721,1.965771 z"
         id="text13"
         style="font-weight:bold;font-size:12.7px;line-height:0;font-family:Sans;-inkscape-font-specification:'Sans, Bold';opacity:0.762992;stroke:#ffffff;stroke-width:0.52;stroke-linecap:round;stroke-linejoin:bevel;paint-order:markers stroke fill"
         aria-label="n" />
      <path
         d="m 51.310208,75.998029 q 0,1.289843 -0.589111,2.313037 -0.589112,1.016992 -1.488282,1.562695 -0.675927,0.409277 -1.48208,0.570508 -0.806152,0.16123 -1.909961,0.16123 h -3.255615 v -9.233545 h 3.348633 q 1.128613,0 1.947168,0.192237 0.818555,0.186035 1.37666,0.533301 0.954981,0.58291 1.500684,1.575097 0.551904,0.985987 0.551904,2.32544 z m -2.461865,-0.0186 q 0,-0.911572 -0.334863,-1.556494 -0.328663,-0.651123 -1.047999,-1.016992 -0.365869,-0.179834 -0.750341,-0.241846 -0.378272,-0.06821 -1.147217,-0.06821 h -0.601514 v 5.779492 h 0.601514 q 0.84956,0 1.246435,-0.07441 0.396875,-0.08061 0.775147,-0.285254 0.651123,-0.37207 0.95498,-0.992187 0.303858,-0.626318 0.303858,-1.544092 z"
         id="text22"
         style="font-weight:bold;font-size:12.7px;line-height:0;font-family:Sans;-inkscape-font-specification:'Sans, Bold';opacity:0.762992;stroke:#ffffff;stroke-width:0.52;stroke-linecap:round;stroke-linejoin:bevel;paint-order:markers stroke fill"
         aria-label="D" />
      <path
         d="m 59.861624,77.535919 h -5.109766 q 0.04961,0.818555 0.620118,1.252637 0.576709,0.434082 1.69292,0.434082 0.706933,0 1.370459,-0.254248 0.663525,-0.254248 1.047998,-0.545703 h 0.248046 v 1.792138 q -0.756543,0.303858 -1.426269,0.440284 -0.669727,0.136425 -1.48208,0.136425 -2.095996,0 -3.212207,-0.942578 -1.116211,-0.942578 -1.116211,-2.685107 0,-1.723926 1.054199,-2.728516 1.060401,-1.010791 2.902149,-1.010791 1.699121,0 2.554882,0.861963 0.855762,0.855762 0.855762,2.468067 z m -2.220019,-1.308447 q -0.0186,-0.700732 -0.347266,-1.054199 -0.328662,-0.353467 -1.023193,-0.353467 -0.644922,0 -1.060401,0.334863 -0.415478,0.334864 -0.465088,1.072803 z"
         id="text21"
         style="font-weight:bold;font-size:12.7px;line-height:0;font-family:Sans;-inkscape-font-specification:'Sans, Bold';opacity:0.762992;stroke:#ffffff;stroke-width:0.52;stroke-linecap:round;stroke-linejoin:bevel;paint-order:markers stroke fill"
         aria-label="e" />
      <path
         d="m 68.450247,73.641583 -2.685107,6.963916 h -2.530078 l -2.666504,-6.963916 h 2.362646 l 1.612305,4.787305 1.593701,-4.787305 z"
         id="text20"
         style="font-weight:bold;font-size:12.7px;line-height:0;font-family:Sans;-inkscape-font-specification:'Sans, Bold';opacity:0.762992;stroke:#ffffff;stroke-width:0.52;stroke-linecap:round;stroke-linejoin:bevel;paint-order:markers stroke fill"
         aria-label="v" />
      <path
         d="m 75.742827,78.397882 q 0,1.079004 -0.967383,1.742529 -0.967383,0.657325 -2.6479,0.657325 -0.930176,0 -1.686719,-0.173633 -0.756543,-0.173633 -1.21543,-0.384473 v -1.835547 h 0.204639 q 0.167432,0.117823 0.384473,0.260449 0.223242,0.136426 0.626318,0.297657 0.347265,0.142627 0.787549,0.248047 0.440283,0.09922 0.942578,0.09922 0.657324,0 0.973584,-0.142627 0.31626,-0.148828 0.31626,-0.434082 0,-0.254248 -0.186036,-0.365869 -0.186035,-0.117822 -0.706933,-0.223242 -0.248047,-0.05581 -0.675928,-0.117822 -0.42168,-0.06821 -0.768945,-0.161231 -0.94878,-0.248047 -1.407666,-0.768945 -0.458887,-0.5271 -0.458887,-1.308447 0,-1.00459 0.948779,-1.668115 0.954981,-0.669727 2.604492,-0.669727 0.781348,0 1.494483,0.16123 0.719336,0.15503 1.122412,0.334864 v 1.761133 h -0.192236 q -0.496094,-0.341065 -1.134815,-0.551905 -0.632519,-0.217041 -1.283642,-0.217041 -0.539502,0 -0.911573,0.148828 -0.365869,0.148829 -0.365869,0.42168 0,0.248047 0.167432,0.378272 0.167432,0.130224 0.787549,0.260449 0.341064,0.06821 0.731738,0.136426 0.396875,0.06201 0.79375,0.16123 0.880566,0.229443 1.302246,0.725537 0.42168,0.489893 0.42168,1.227832 z"
         id="text19"
         style="font-weight:bold;font-size:12.7px;line-height:0;font-family:Sans;-inkscape-font-specification:'Sans, Bold';opacity:0.762992;stroke:#ffffff;stroke-width:0.52;stroke-linecap:round;stroke-linejoin:bevel;paint-order:markers stroke fill"
         aria-label="s" />
    </g>
  </g>
</svg>
